<?xml version="1.0" encoding="utf-8"?>
<!-- Generator: Adobe Illustrator 16.0.0, SVG Export Plug-In . SVG Version: 6.00 Build 0)  -->
<!DOCTYPE svg PUBLIC "-//W3C//DTD SVG 1.1//EN" "http://www.w3.org/Graphics/SVG/1.1/DTD/svg11.dtd">
<svg version="1.1" xmlns="http://www.w3.org/2000/svg" xmlns:xlink="http://www.w3.org/1999/xlink" x="0px" y="0px" width="400px"
	 height="400px" viewBox="0 0 400 400" enable-background="new 0 0 400 400" xml:space="preserve">
<g id="Layer_3">
	<g>
		<polygon fill="#B3B3B3" points="-220.513,30.125 -380.362,86.38 -355.102,295.808 -220.343,369.875 -84.889,294.806 
			-59.639,85.384 		"/>
		<polygon fill="#A6120D" points="-75.584,97.488 -220.887,47.937 -220.887,352.179 -99.115,284.786 		"/>
		<polygon fill="#DD1B16" points="-362.425,98.381 -340.78,285.682 -220.889,352.179 -220.889,47.931 		"/>
	</g>
	<g>
		<polygon fill="#A6120D" points="344.416,97.488 199.113,47.937 199.113,352.179 320.885,284.786 		"/>
		<polygon fill="#DD1B16" points="57.574,98.381 79.22,285.682 199.111,352.179 199.111,47.931 		"/>
	</g>
</g>
<g id="Layer_1_copy" display="none">
</g>
<g id="Layer_1">
	<g>
		<path fill-rule="evenodd" clip-rule="evenodd" fill="#B3B3B3" d="M-328.746,97.939c-0.279,0.271,118.804,128.301,169.609,181.669
			c3.89,4.28,9.405,3.518,11.85,1.073c2.443-2.443,5.16-6.979-0.537-12.508C-237.939,183.365-315.076,110.798-328.746,97.939z"/>
		<path fill-rule="evenodd" clip-rule="evenodd" fill="#B3B3B3" d="M-283.861,106.303c-0.229,0.223,96.517,105.403,138.281,149.274
			c3.197,3.52,8.872,2.953,10.882,0.944c2.01-2.01,3.709-7.315-0.006-11.13C-208.78,175.676-272.624,116.874-283.861,106.303z"/>
		<path fill-rule="evenodd" clip-rule="evenodd" fill="#B3B3B3" d="M-321.797,144.239c-0.229,0.223,96.517,105.403,138.282,149.274
			c3.196,3.52,8.871,2.953,10.881,0.943c2.01-2.009,3.709-7.315-0.005-11.129C-246.716,213.613-310.56,154.811-321.797,144.239z"/>
		<path fill-rule="evenodd" clip-rule="evenodd" fill="#B3B3B3" d="M-130.819,220.724c-52.878-49.764-98.45-91.737-106.471-99.283
			c-0.164,0.159,68.896,75.239,98.707,106.552c2.282,2.514,6.334,2.109,7.767,0.675
			C-129.382,227.235-128.168,223.445-130.819,220.724z"/>
		<path fill-rule="evenodd" clip-rule="evenodd" fill="#B3B3B3" d="M-309.183,185.247c-0.163,0.159,68.895,75.24,98.707,106.554
			c2.282,2.511,6.333,2.106,7.769,0.671c1.433-1.432,2.646-5.219-0.006-7.94C-255.589,234.767-301.162,192.792-309.183,185.247z"/>
		<path fill-rule="evenodd" clip-rule="evenodd" fill="#B3B3B3" d="M-136.687,196.955c0.686-0.686,1.268-2.502-0.003-3.806
			c-25.334-23.844-47.172-43.955-51.013-47.57c-0.078,0.077,33.008,36.049,47.293,51.054
			C-139.316,197.837-137.374,197.643-136.687,196.955z"/>
		<path fill-rule="evenodd" clip-rule="evenodd" fill="#B3B3B3" d="M-283.861,234.926c-0.079,0.075,33.009,36.048,47.293,51.054
			c1.094,1.203,3.035,1.009,3.723,0.321c0.687-0.686,1.268-2.501-0.003-3.807C-258.182,258.652-280.019,238.54-283.861,234.926z"/>
	</g>
	<g>
		<path fill-rule="evenodd" clip-rule="evenodd" fill="#B3B3B3" d="M91.254,97.939C90.975,98.21,210.058,226.24,260.863,279.608
			c3.89,4.28,9.405,3.518,11.85,1.073c2.443-2.443,5.16-6.979-0.537-12.508C182.061,183.365,104.924,110.798,91.254,97.939z"/>
		<path fill-rule="evenodd" clip-rule="evenodd" fill="#B3B3B3" d="M136.139,106.303c-0.229,0.223,96.518,105.403,138.281,149.274
			c3.197,3.52,8.872,2.953,10.882,0.944c2.01-2.01,3.709-7.315-0.006-11.13C211.22,175.676,147.377,116.874,136.139,106.303z"/>
		<path fill-rule="evenodd" clip-rule="evenodd" fill="#B3B3B3" d="M98.203,144.239c-0.23,0.223,96.517,105.403,138.281,149.274
			c3.196,3.52,8.871,2.953,10.881,0.943c2.01-2.009,3.709-7.315-0.005-11.129C173.283,213.613,109.439,154.811,98.203,144.239z"/>
		<path fill-rule="evenodd" clip-rule="evenodd" fill="#B3B3B3" d="M289.181,220.724c-52.878-49.764-98.45-91.737-106.471-99.283
			c-0.163,0.159,68.896,75.239,98.707,106.552c2.282,2.514,6.334,2.109,7.767,0.675
			C290.618,227.235,291.832,223.445,289.181,220.724z"/>
		<path fill-rule="evenodd" clip-rule="evenodd" fill="#B3B3B3" d="M110.816,185.247c-0.162,0.159,68.895,75.24,98.707,106.554
			c2.282,2.511,6.333,2.106,7.769,0.671c1.433-1.432,2.646-5.219-0.006-7.94C164.41,234.767,118.838,192.792,110.816,185.247z"/>
		<path fill-rule="evenodd" clip-rule="evenodd" fill="#B3B3B3" d="M283.313,196.955c0.686-0.686,1.268-2.502-0.003-3.806
			c-25.334-23.844-47.172-43.955-51.013-47.57c-0.078,0.077,33.008,36.049,47.293,51.054
			C280.684,197.837,282.626,197.643,283.313,196.955z"/>
		<path fill-rule="evenodd" clip-rule="evenodd" fill="#B3B3B3" d="M136.139,234.926c-0.078,0.075,33.01,36.048,47.294,51.054
			c1.094,1.203,3.034,1.009,3.723,0.321c0.687-0.686,1.268-2.501-0.003-3.807C161.818,258.652,139.981,238.54,136.139,234.926z"/>
	</g>
</g>
<g id="Layer_4">
	<g>
		<path fill-rule="evenodd" clip-rule="evenodd" fill="#F2F2F2" d="M-328.859,97.939C-329.051,98.125-273,158.82-221,214.047
			v-14.628C-277,146.691-319.105,107.114-328.859,97.939z"/>
		<path fill-rule="evenodd" clip-rule="evenodd" fill="#F2F2F2" d="M-283.974,106.303c-0.127,0.123,29.974,32.398,62.974,68.634
			v-10.15C-254,134.172-277.548,112.348-283.974,106.303z"/>
		<path fill-rule="evenodd" clip-rule="evenodd" fill="#F2F2F2" d="M-321.911,144.239C-322.085,144.409-266,205.29-221,253.737
			V238.09C-273,189.462-313.218,152.417-321.911,144.239z"/>
		<path fill-rule="evenodd" clip-rule="evenodd" fill="#F2F2F2" d="M-237.403,121.441c-0.05,0.049,6.403,7.22,16.403,18.027v-2.787
			C-229,129.018-235.012,123.69-237.403,121.441z"/>
		<path fill-rule="evenodd" clip-rule="evenodd" fill="#F2F2F2" d="M-309.296,185.247c-0.146,0.143,55.296,60.486,88.296,95.542
			v-13.326C-266,225.438-302.212,191.911-309.296,185.247z"/>
		<path fill-rule="evenodd" clip-rule="evenodd" fill="#F2F2F2" d="M-283.861,234.926c-0.079,0.075,33.009,36.048,47.293,51.054
			c1.094,1.203,3.035,1.009,3.723,0.321c0.687-0.686,1.268-2.501-0.003-3.807C-258.182,258.652-280.019,238.54-283.861,234.926z"/>
	</g>
	<g>
		<path fill-rule="evenodd" clip-rule="evenodd" fill="#F2F2F2" d="M91.141,97.939C90.949,98.125,147,158.82,199,214.047v-14.628
			C143,146.691,100.895,107.114,91.141,97.939z"/>
		<path fill-rule="evenodd" clip-rule="evenodd" fill="#F2F2F2" d="M136.025,106.303C135.898,106.426,166,138.701,199,174.937
			v-10.15C166,134.172,142.452,112.348,136.025,106.303z"/>
		<path fill-rule="evenodd" clip-rule="evenodd" fill="#F2F2F2" d="M98.09,144.239C97.915,144.409,154,205.29,199,253.737V238.09
			C147,189.462,106.782,152.417,98.09,144.239z"/>
		<path fill-rule="evenodd" clip-rule="evenodd" fill="#F2F2F2" d="M182.597,121.441c-0.05,0.049,6.403,7.22,16.403,18.027v-2.787
			C191,129.018,184.988,123.69,182.597,121.441z"/>
		<path fill-rule="evenodd" clip-rule="evenodd" fill="#F2F2F2" d="M110.703,185.247C110.558,185.389,166,245.732,199,280.789
			v-13.326C154,225.438,117.788,191.911,110.703,185.247z"/>
		<path fill-rule="evenodd" clip-rule="evenodd" fill="#F2F2F2" d="M136.139,234.926c-0.078,0.075,33.01,36.048,47.294,51.054
			c1.094,1.203,3.034,1.009,3.723,0.321c0.687-0.686,1.268-2.501-0.003-3.807C161.818,258.652,139.981,238.54,136.139,234.926z"/>
	</g>
</g>
</svg>
